<svg xmlns="http://www.w3.org/2000/svg" xmlns:xlink="http://www.w3.org/1999/xlink" width="100%" height="100%" viewBox="124.71673583984375 282.8521728515625 524 820.1738891601562" preserveAspectRatio="xMidYMid meet" ><rect id="svgEditorBackground" x="0" y="0" width="1700" height="1290" style="fill:none; stroke: none;"/><defs id="svgEditorDefs"><path id="svgEditorClosePathDefs" style="stroke:black;stroke-width:1px;fill:khaki;"/><linearGradient gradientUnits="objectBoundingBox" id="lgrd2-black-white" spreadMethod="pad" x1="0%" x2="100%" y1="0%" y2="100%" gradientTransform=""><stop offset="0%" stop-color="darkgreen"/><stop offset="100%" stop-color="#578013"/><stop style="stop-color: darkgreen;"/></linearGradient></defs><path d="M51.95508164724461,948.248644151322a672.7405110358,672.7405110358,0,0,1,399.00183364810255,-254.00116728479907" style="fill:none;stroke:darkgreen;stroke-width:5px;" id="e4_circleArc" transform="matrix(0.894401 -0.699462 0.447266 1.39872 -196.693 -233.772)"/><path d="M699.0464576429714,796.9044162348017c8.38522952599999,-6.892120578400068,27.702936175400055,-17.56772306740004,38.000122070299994,-21.00012207040004s33.337068020200036,-10.943363179399967,55.9290677421169,1.864326104382485s25.043419928455705,1.3235963116109133,7.071237433683109,19.135795966017554s-44.12197948539995,10.124295952800026,-59.00024414059999,9s-28.995124498699965,-8.842853838499991,-39.000183105500014,-9s-2.2504740906999814,0.02666292059996067,-3,0Z" style="fill:url(#lgrd2-black-white); stroke-width: 1px;" id="e1_areaS3" transform="matrix(-0.915546 0.402213 -0.402213 -0.915546 1406.34 1131.09)"/><path d="M740.4835729787471,751.2848497197507c8.38522952599999,-6.892120578400068,27.702936175400055,-17.56772306740004,38.000122070299994,-21.00012207040004s33.337068020200036,-10.943363179399967,55.9290677421169,1.864326104382485s25.043419928455705,1.3235963116109133,7.071237433683109,19.135795966017554s-44.12197948539995,10.124295952800026,-59.00024414059999,9s-28.995124498699965,-8.842853838499991,-39.000183105500014,-9s-2.2504740906999814,0.02666292059996067,-3,0Z" style="fill:url(#lgrd2-black-white); stroke-width: 1px;" id="e2_areaS3" transform="matrix(-0.915546 0.402213 -0.402213 -0.915546 1406.34 1131.09)"/><path d="M591.755000744119,897.3682640713172c8.38522952599999,-6.892120578400068,27.702936175400055,-17.56772306740004,38.000122070299994,-21.00012207040004s33.337068020200036,-10.943363179399967,55.9290677421169,1.864326104382485s25.043419928455705,1.3235963116109133,7.071237433683109,19.135795966017554s-44.12197948539995,10.124295952800026,-59.00024414059999,9s-28.995124498699965,-8.842853838499991,-39.000183105500014,-9s-2.2504740906999814,0.02666292059996067,-3,0Z" style="fill:url(#lgrd2-black-white); stroke-width: 1px;" id="e3_areaS3" transform="matrix(-0.915546 0.402213 -0.402213 -0.915546 1406.34 1131.09)"/><path d="M616.1708926853001,1069.0860188567858c8.385229526000103,-6.892120578399954,27.702936175400055,-17.56772306739981,38.000122070299994,-21.00012207039981s40.01998531607819,-1.9801814276286223,55.92906774211701,1.8643261043823713s44.73084456793708,-2.1985259604439307,7.071237433683109,19.13579596601744s-43.909740646971386,14.149833937507537,-55.60686516066039,10.932609739128566s-32.38850347863968,-10.775463577628443,-42.393562085439726,-10.932609739128566s-2.2504740906999814,0.026662920600074358,-3,0Z" style="fill:url(#lgrd2-black-white); stroke-width: 1px;" id="e4_areaS3" transform="matrix(-0.176106 0.984371 -0.984371 -0.176106 1561.71 83.8971)"/><path d="M704.2252888359553,1089.5030045397136c8.385229526000103,-6.892120578399954,27.702936175400055,-17.56772306739981,38.000122070299994,-21.00012207040004s40.01998531607819,-1.9801814276286223,55.92906774211701,1.8643261043825987s44.73084456793708,-2.1985259604439307,7.071237433683109,19.13579596601744s-43.909740646971386,14.149833937507537,-55.60686516066039,10.932609739128338s-32.38850347863968,-10.775463577628216,-42.393562085439726,-10.932609739128338s-2.2504740906999814,0.026662920600074358,-3,0Z" style="fill:url(#lgrd2-black-white); stroke-width: 1px;" id="e5_areaS3" transform="matrix(-0.176106 0.984371 -0.984371 -0.176106 1561.71 83.8971)"/><path d="M650.5251513694116,845.6375196328721c8.38522952599999,-6.892120578400068,27.702936175400055,-17.56772306740004,38.000122070299994,-21.00012207040004s33.337068020200036,-10.943363179399967,55.9290677421169,1.864326104382485s25.043419928455705,1.3235963116109133,7.071237433683109,19.135795966017554s-44.12197948539995,10.124295952800026,-59.00024414059999,9s-28.995124498699965,-8.842853838499991,-39.000183105500014,-9s-2.2504740906999814,0.02666292059996067,-3,0Z" style="fill:url(#lgrd2-black-white); stroke-width: 1px;" id="e7_areaS3" transform="matrix(-0.915546 0.402213 -0.402213 -0.915546 1406.34 1131.09)"/><path d="M548.7556937228362,933.0902441838824c8.38522952599999,-6.892120578400068,27.702936175400055,-17.56772306740004,38.000122070299994,-21.00012207040004s33.337068020200036,-10.943363179399967,55.9290677421169,1.864326104382485s25.043419928455705,1.3235963116109133,7.071237433683109,19.135795966017554s-44.12197948539995,10.124295952800026,-59.00024414059999,9s-28.995124498699965,-8.842853838499991,-39.000183105500014,-9s-2.2504740906999814,0.02666292059996067,-3,0Z" style="fill:url(#lgrd2-black-white); stroke-width: 1px;" id="e9_areaS3" transform="matrix(-0.915546 0.402213 -0.402213 -0.915546 1406.34 1131.09)"/><path d="M574.759473719442,1031.7671714828562c8.385229525999875,-6.892120578400181,27.702936175399827,-17.567723067400152,38.00012207029977,-21.000122070400153s40.01998531607819,-1.9801814276286223,55.92906774211701,1.864326104382485s44.73084456793708,-2.1985259604439307,7.071237433683109,19.135795966017668s-43.909740646971386,14.14983393750731,-55.60686516066039,10.932609739128111s-32.388503478639905,-10.775463577628216,-42.393562085439726,-10.932609739128111s-2.250474090699754,0.026662920599846984,-2.9999999999997726,0Z" style="fill:url(#lgrd2-black-white); stroke-width: 1px;" id="e10_areaS3" transform="matrix(-0.321082 0.947051 -0.947051 -0.321082 1610.56 228.798)"/><path d="M651.2961916794936,876.7430479041401c8.385229525999875,-6.892120578400068,27.702936175400055,-17.56772306740004,38.000122070299994,-21.00012207040004s33.33706802019992,-10.943363179399967,55.929067742116786,1.864326104382485s25.043419928455705,1.3235963116109133,7.071237433683109,19.135795966017554s-44.121979485399834,10.124295952800026,-59.00024414059999,9s-28.99512449869985,-8.842853838499991,-39.0001831054999,-9s-2.2504740906999814,0.02666292059996067,-3,0Z" style="fill:url(#lgrd2-black-white); stroke-width: 1px;" id="e11_areaS3" transform="matrix(0.111248 0.993792 -0.993792 0.111248 1115.2 -98.8542)"/><path d="M695.1926184837679,906.6881752602591c8.385229525999875,-6.892120578400068,27.702936175400055,-17.56772306740004,38.000122070299994,-21.00012207040004s33.33706802019992,-10.943363179399967,55.929067742116786,1.864326104382485s25.043419928455705,1.3235963116109133,7.071237433683109,19.135795966017554s-44.12197948539972,10.124295952800026,-59.00024414059999,9s-28.99512449869985,-8.842853838499991,-39.0001831054999,-9s-2.2504740906999814,0.026662920600074358,-3,0Z" style="fill:url(#lgrd2-black-white); stroke-width: 1px;" id="e6_areaS3" transform="matrix(0.176735 0.984258 -0.984258 0.176735 1061.42 -137.158)"/><path d="M428.8895171962763,1043.6426137860738c8.38522952599999,-6.892120578399954,27.702936175400055,-17.56772306740004,38.000122070299994,-21.000122070399925s33.337068020200036,-10.943363179399967,55.9290677421169,1.864326104382485s25.043419928455705,1.323596311611027,7.071237433683109,19.13579596601744s-44.12197948539995,10.12429595280014,-59.00024414059999,9s-28.995124498699965,-8.842853838499877,-39.000183105500014,-9s-2.2504740906999814,0.026662920600074358,-3,0Z" style="fill:url(#lgrd2-black-white); stroke-width: 1px;" id="e8_areaS3" transform="matrix(-0.820167 0.572124 -0.572124 -0.820167 1532.77 985.265)"/><path d="M498.31807888095216,983.7521071706523c8.38522952599999,-6.892120578400068,27.702936175400055,-17.56772306740004,38.000122070299994,-21.00012207040004s33.337068020200036,-10.943363179399967,55.9290677421169,1.864326104382485s25.043419928455705,1.3235963116109133,7.071237433683109,19.135795966017554s-44.12197948539995,10.124295952800026,-59.00024414059999,9s-28.995124498699965,-8.842853838499991,-39.000183105500014,-9s-2.2504740906999814,0.02666292059996067,-3,0Z" style="fill:url(#lgrd2-black-white); stroke-width: 1px;" id="e12_areaS3" transform="matrix(-0.9066 0.421991 -0.421991 -0.9066 1428.79 1122.46)"/><path d="M501.20805496503766,1012.1871319403729c8.385229525999875,-6.892120578400181,27.70293617540011,-17.567723067400152,38.000122070299824,-21.000122070400153s40.01998531607819,-1.9801814276286223,55.92906774211701,1.864326104382485s44.73084456793708,-2.1985259604439307,7.071237433683109,19.135795966017668s-43.909740646971386,14.14983393750731,-55.60686516066039,10.932609739128111s-32.388503478639905,-10.775463577628216,-42.39356208543978,-10.932609739128111s-2.250474090699754,0.026662920599846984,-2.9999999999997726,0Z" style="fill:url(#lgrd2-black-white); stroke-width: 1px;" id="e13_areaS3" transform="matrix(-0.321082 0.947051 -0.947051 -0.321082 1610.56 228.798)"/></svg>